<svg width="10" height="10" viewBox="0 0 10 10" fill="none" xmlns="http://www.w3.org/2000/svg">
<path d="M4.16667 8.33333C6.46785 8.33333 8.33333 6.46785 8.33333 4.16667C8.33333 1.86548 6.46785 0 4.16667 0C1.86548 0 0 1.86548 0 4.16667C0 6.46785 1.86548 8.33333 4.16667 8.33333Z" fill="#FFEA84"/>
<path d="M4.16675 0V8.33333C6.46794 8.33333 8.33341 6.46785 8.33341 4.16667C8.33341 1.86548 6.46794 0 4.16675 0Z" fill="#FFDC40"/>
<path d="M4.16667 7.35677C5.92851 7.35677 7.35677 5.92851 7.35677 4.16667C7.35677 2.40482 5.92851 0.976562 4.16667 0.976562C2.40482 0.976562 0.976562 2.40482 0.976562 4.16667C0.976562 5.92851 2.40482 7.35677 4.16667 7.35677Z" fill="#FFDC40"/>
<path d="M4 1V7.33333C5.84095 7.33333 7.33333 5.91557 7.33333 4.16667C7.33333 2.41776 5.84095 1 4 1Z" fill="#FFAB15"/>
<path d="M5.83341 10.0001C8.1346 10.0001 10.0001 8.1346 10.0001 5.83341C10.0001 3.53223 8.1346 1.66675 5.83341 1.66675C3.53223 1.66675 1.66675 3.53223 1.66675 5.83341C1.66675 8.1346 3.53223 10.0001 5.83341 10.0001Z" fill="#FFEA84"/>
<path d="M5.83325 1.66675V10.0001C8.13444 10.0001 9.99992 8.1346 9.99992 5.83341C9.99992 3.53223 8.13444 1.66675 5.83325 1.66675Z" fill="#FFDC40"/>
<path d="M5.83342 9.02352C7.59526 9.02352 9.02352 7.59526 9.02352 5.83342C9.02352 4.07157 7.59526 2.64331 5.83342 2.64331C4.07157 2.64331 2.64331 4.07157 2.64331 5.83342C2.64331 7.59526 4.07157 9.02352 5.83342 9.02352Z" fill="#FFDC40"/>
<path d="M5.66675 2.66675V9.00008C7.5077 9.00008 9.00008 7.58232 9.00008 5.83341C9.00008 4.08451 7.5077 2.66675 5.66675 2.66675Z" fill="#FFAB15"/>
</svg>
