<svg width="32" height="32" viewBox="0 0 32 32" fill="none" xmlns="http://www.w3.org/2000/svg">
<path d="M13.3333 26.6667C20.6971 26.6667 26.6667 20.6971 26.6667 13.3333C26.6667 5.96954 20.6971 0 13.3333 0C5.96954 0 0 5.96954 0 13.3333C0 20.6971 5.96954 26.6667 13.3333 26.6667Z" fill="#FFEA84"/>
<path d="M13.3336 0V26.6667C20.6974 26.6667 26.667 20.6971 26.667 13.3333C26.667 5.96953 20.6974 0 13.3336 0Z" fill="#FFDC40"/>
<path d="M13.3333 23.5417C18.9712 23.5417 23.5417 18.9712 23.5417 13.3333C23.5417 7.69543 18.9712 3.125 13.3333 3.125C7.69543 3.125 3.125 7.69543 3.125 13.3333C3.125 18.9712 7.69543 23.5417 13.3333 23.5417Z" fill="#FFDC40"/>
<path d="M12.8 3.20001V23.4667C18.691 23.4667 23.4667 18.9298 23.4667 13.3333C23.4667 7.73685 18.691 3.20001 12.8 3.20001Z" fill="#FFAB15"/>
<path d="M18.667 32.0003C26.0307 32.0003 32.0003 26.0307 32.0003 18.6669C32.0003 11.3031 26.0307 5.33359 18.667 5.33359C11.3032 5.33359 5.33362 11.3031 5.33362 18.6669C5.33362 26.0307 11.3032 32.0003 18.667 32.0003Z" fill="#FFEA84"/>
<path d="M18.6664 5.33359V32.0003C26.0302 32.0003 31.9997 26.0307 31.9997 18.6669C31.9997 11.3031 26.0302 5.33359 18.6664 5.33359Z" fill="#FFDC40"/>
<path d="M18.667 28.8753C24.3049 28.8753 28.8753 24.3048 28.8753 18.6669C28.8753 13.029 24.3049 8.45859 18.667 8.45859C13.029 8.45859 8.45862 13.029 8.45862 18.6669C8.45862 24.3048 13.029 28.8753 18.667 28.8753Z" fill="#FFDC40"/>
<path d="M18.1336 8.5336V28.8003C24.0247 28.8003 28.8003 24.2634 28.8003 18.6669C28.8003 13.0704 24.0247 8.5336 18.1336 8.5336Z" fill="#FFAB15"/>
</svg>
