<svg width="20" height="20" viewBox="0 0 20 20" fill="none" xmlns="http://www.w3.org/2000/svg">
<path d="M11.7578 14.7266V9.64844H9.21875L10 14.7266H11.7578Z" fill="#FFC34D"/>
<path d="M8.24219 9.64844H10V14.7266H8.24219V9.64844Z" fill="#FFE14D"/>
<path d="M14.2075 14.1406H10L9.21875 19.272H15.4903L14.2075 14.1406Z" fill="#733E33"/>
<path d="M5.79246 14.1406L4.50964 19.272H9.99995V14.1406H5.79246Z" fill="#8C624D"/>
<path d="M4.27523 7.03125H2.34375C1.05141 7.03125 0 5.97984 0 4.6875C0 3.39516 1.05141 2.34375 2.34375 2.34375H4.10156V3.51562H2.34375C1.69758 3.51562 1.17188 4.04133 1.17188 4.6875C1.17188 5.33367 1.69758 5.85938 2.34375 5.85938H4.27523V7.03125Z" fill="#FFE14D"/>
<path d="M17.6562 7.03125H15.7247V5.85938H17.6562C18.3024 5.85938 18.8281 5.33367 18.8281 4.6875C18.8281 4.04133 18.3024 3.51562 17.6562 3.51562H15.8984V2.34375H17.6562C18.9486 2.34375 20 3.39516 20 4.6875C20 5.97984 18.9486 7.03125 17.6562 7.03125Z" fill="#FFC34D"/>
<path d="M9.21875 0.585938L10 10.2344H11.462C14.2313 10.2344 16.4844 7.98137 16.4844 5.21203V0.585938H9.21875Z" fill="#FFE14D"/>
<path d="M12.4023 17.6562V16.4844H10L9.60938 17.0703L10 17.6562H12.4023Z" fill="#FFEECC"/>
<path d="M16.6797 20V18.8281H10L9.60938 19.5117L10 20H16.6797Z" fill="#8C624D"/>
<path d="M3.32031 18.8281H10V20H3.32031V18.8281Z" fill="#A6896B"/>
<path d="M7.59766 16.4844H10V17.6562H7.59766V16.4844Z" fill="#FFFBE6"/>
<path d="M3.51562 0.585938V5.21203C3.51562 7.98137 5.76867 10.2344 8.53797 10.2344H10V0.585938H3.51562Z" fill="#FFFF99"/>
<path d="M17.6562 0H10L9.60938 0.585938L10 1.17188H17.6562V0Z" fill="#FFC34D"/>
<path d="M2.34375 0H10V1.17188H2.34375V0Z" fill="#FFE14D"/>
</svg>
