<?xml version="1.0" ?><svg style="enable-background:new 0 0 48 48;" version="1.1" viewBox="0 0 48 48" xml:space="preserve" xmlns="http://www.w3.org/2000/svg" xmlns:xlink="http://www.w3.org/1999/xlink"><g id="Icons"><g><linearGradient gradientUnits="userSpaceOnUse" id="SVGID_1_" x1="24" x2="24" y1="41.28282" y2="6.11993"><stop offset="0.09694" style="stop-color:#FFD879"/><stop offset="0.15387" style="stop-color:#FCCB76"/><stop offset="0.25828" style="stop-color:#F5AA6C"/><stop offset="0.39756" style="stop-color:#E9755E"/><stop offset="0.44898" style="stop-color:#E45F58"/><stop offset="0.67857" style="stop-color:#D22A9C"/><stop offset="1" style="stop-color:#6968DF"/></linearGradient><circle cx="24" cy="24" r="15.34377" style="fill:url(#SVGID_1_);"/><circle cx="24" cy="24" r="15.34377" style="fill:none;stroke:#303030;stroke-width:0.7;stroke-linecap:round;stroke-linejoin:round;stroke-miterlimit:10;"/><path d="    M21.6607,11.47916c0.53679-0.0955,1.07644-0.1576,1.61342-0.18429" style="fill:none;stroke:#303030;stroke-width:0.7;stroke-linecap:round;stroke-linejoin:round;stroke-miterlimit:10;"/><path d="    M15.23582,14.66794c1.44125-1.2413,3.22635-2.35482,5.10565-2.8855" style="fill:none;stroke:#303030;stroke-width:0.7;stroke-linecap:round;stroke-linejoin:round;stroke-miterlimit:10;"/><circle cx="24" cy="24" r="3.21549" style="fill:none;stroke:#FFFFFF;stroke-miterlimit:10;"/><circle cx="28.24781" cy="19.89086" r="0.46211" style="fill:#FFFFFF;"/><path d="M27.19764,30.76474h-6.39556    c-1.96662,0-3.56681-1.60019-3.56681-3.5671v-6.39527c0-1.96691,1.60019-3.5671,3.56681-3.5671h6.39556    c1.96691,0,3.5671,1.60019,3.5671,3.5671v6.39527C30.76474,29.16454,29.16454,30.76474,27.19764,30.76474z" style="fill:none;stroke:#FFFFFF;stroke-miterlimit:10;"/></g></g></svg>