<svg width="15" height="15" viewBox="0 0 15 15" fill="none" xmlns="http://www.w3.org/2000/svg">
<g clip-path="url(#clip0)">
<path d="M8.95414 0L7.07855 3.56725L6.22607 5.73589V6.21211V6.68836H9.46783L12.9844 0H8.95414Z" fill="#3A4DE2"/>
<path d="M6.04585 0H2.01562L5.53228 6.6883H9.5625L6.04585 0Z" fill="#0088FF"/>
<path d="M11.6115 10.8885C11.6115 13.1555 9.76694 15 7.49995 15C5.23296 15 3.38843 13.1555 3.38843 10.8885C3.38843 9.36068 4.23687 7.96498 5.57339 7.2557V6.1559H9.42651V7.2557C10.763 7.96498 11.6115 9.36068 11.6115 10.8885Z" fill="#FF9800"/>
<path d="M11.6115 10.8885C11.6115 13.1555 9.76699 15 7.5 15V6.1559H9.42656V7.2557C10.7631 7.96498 11.6115 9.36068 11.6115 10.8885Z" fill="#E47500"/>
<path d="M10.1701 10.8885C10.1701 12.363 8.97476 13.5586 7.49995 13.5586C6.02515 13.5586 4.82983 12.363 4.82983 10.8885C4.82983 9.41367 6.02515 8.21835 7.49995 8.21835C8.97476 8.21835 10.1701 9.41367 10.1701 10.8885Z" fill="#FFB74D"/>
<path d="M10.3297 6.1559H4.67017V7.03481H10.3297V6.1559Z" fill="#FFA81F"/>
<path d="M10.1701 10.8885C10.1701 12.363 8.9748 13.5586 7.5 13.5586V8.21835C8.9748 8.21835 10.1701 9.41367 10.1701 10.8885Z" fill="#FF9800"/>
<path d="M10.3298 6.1559H7.5V7.03481H10.3298V6.1559Z" fill="#FF9800"/>
</g>
<defs>
<clipPath id="clip0">
<rect width="15" height="15" fill="white"/>
</clipPath>
</defs>
</svg>
