<svg width="43" height="43" viewBox="0 0 43 43" fill="none" xmlns="http://www.w3.org/2000/svg">
<circle cx="21.2215" cy="21.2215" r="21.2215" fill="#00ACEE"/>
<path fill-rule="evenodd" clip-rule="evenodd" d="M17.8998 31.7551C26.9757 31.7551 31.9136 23.8607 31.9136 16.9522V16.2473C32.8458 15.4973 33.6567 14.5928 34.315 13.5688C33.4201 13.9799 32.4778 14.2643 31.5124 14.4147C32.505 13.7563 33.2576 12.7627 33.6477 11.5952C32.6836 12.164 31.6511 12.5923 30.5782 12.8685C30.1271 12.3306 29.5722 11.9009 28.9508 11.6084C28.3295 11.3158 27.656 11.1671 26.9757 11.1723C25.6723 11.1932 24.4277 11.7494 23.506 12.7231C22.5842 13.6968 22.0576 15.0114 22.0378 16.3883C22.0074 16.7699 22.0529 17.154 22.1713 17.516C20.2073 17.416 18.2862 16.8737 16.5368 15.9255C14.7874 14.9773 13.25 13.6451 12.0277 12.0181C11.5885 12.8345 11.3585 13.7577 11.3604 14.6966C11.3781 15.5486 11.5797 16.3851 11.9497 17.1424C12.3198 17.8997 12.8485 18.5579 13.4957 19.0667C12.6935 19.0497 11.9102 18.8063 11.2269 18.3619C11.2256 19.5693 11.6257 20.7388 12.3575 21.6664C13.0892 22.5939 14.1061 23.2205 15.2306 23.4369C14.7961 23.5606 14.3452 23.6083 13.8961 23.5778C13.5788 23.6004 13.2605 23.5524 12.9619 23.4369C13.2882 24.4816 13.9121 25.3944 14.7482 26.0504C15.5842 26.7065 16.5917 27.0738 17.6329 27.1021C15.8804 28.5505 13.7232 29.3452 11.4981 29.3622C11.0917 29.3857 10.6844 29.3381 10.2927 29.2213C12.5012 30.9152 15.1708 31.8057 17.8998 31.7587" fill="white"/>
</svg>
