<svg width="37" height="37" viewBox="0 0 37 37" fill="none" xmlns="http://www.w3.org/2000/svg">
<path d="M8.13123 23.7C7.82548 23.412 4.42957 21.8187 2.99048 17.0997C1.98483 13.7959 -0.917794 2.89997 3.97603 1.40841C7.36984 0.375014 13.7663 1.64299 15.4026 6.1911C17.8161 12.9003 9.33135 21.8466 8.13123 23.7Z" fill="#FF9100"/>
<path d="M4.60689 3.48323C2.81261 4.02949 3.01372 9.73305 5.06527 16.4688C5.58182 18.1678 6.58776 19.6763 7.75861 20.738C13.7671 13.2316 14.1429 9.09263 13.3627 6.92466C12.1809 3.64388 7.04918 2.74128 4.60689 3.48323Z" fill="#FFBD86"/>
<path d="M28.8836 23.7041C28.5032 23.1199 19.3188 13.2582 21.5455 6.39956C22.9872 1.95551 29.2191 0.248818 33.0451 1.40839C37.939 2.89995 35.0363 13.7959 34.0307 17.0997C32.5769 21.8753 29.2266 23.3813 28.8836 23.7041Z" fill="#FF641A"/>
<path d="M27.9129 3.57633C26.3345 3.98072 24.3063 4.91541 23.6066 7.06856C22.9016 9.24079 23.3451 13.3597 29.2572 20.7433C30.4312 19.6794 31.4392 18.1688 31.9559 16.4688C34.0074 9.73307 34.2074 4.02943 32.4132 3.48325C31.5176 3.209 29.6786 3.12329 27.9129 3.57633Z" fill="#F6A96C"/>
<path d="M34.832 21.8527C34.832 30.2861 28.2342 35.9445 18.5 35.9445C8.76582 35.9445 2.16797 30.2861 2.16797 21.8527C2.16797 14.9586 6.6196 7.41398 13.0801 4.59562L14.1641 5.59296L15.248 3.83691C15.9418 3.6634 16.6788 3.55507 17.416 3.48996L18.5 7.76093L19.584 3.48996C20.3212 3.55507 21.0582 3.66347 21.752 3.83691L22.8359 5.59296L23.9199 4.59562C30.3804 7.41398 34.832 14.9587 34.832 21.8527Z" fill="#FDBF00"/>
<path d="M34.832 21.8527C34.832 30.2861 28.2342 35.9445 18.5 35.9445V7.76093L19.584 3.48996C20.3212 3.55507 21.0582 3.66347 21.752 3.83691L22.8359 5.59296L23.9199 4.59562C30.3804 7.41398 34.832 14.9587 34.832 21.8527Z" fill="#FF9100"/>
<path d="M27.1718 25.0718L26.6467 22.9695L36.4749 20.5305L36.9999 22.6329L27.1718 25.0718Z" fill="#714C2F"/>
<path d="M9.82812 25.0718L0 22.6329L0.525082 20.5305L10.3532 22.9695L9.82812 25.0718Z" fill="#895D3C"/>
<path d="M11.9961 20.7687C10.2029 20.7687 8.74414 19.31 8.74414 17.5168C8.74414 15.7236 10.2029 14.2648 11.9961 14.2648C13.7893 14.2648 15.248 15.7236 15.248 17.5168C15.248 19.31 13.7893 20.7687 11.9961 20.7687Z" fill="#FED2A4"/>
<path d="M11.9961 18.6007C11.3984 18.6007 10.9121 18.1145 10.9121 17.5168C10.9121 16.919 11.3984 16.4328 11.9961 16.4328C12.5938 16.4328 13.0801 16.919 13.0801 17.5168C13.0801 18.1145 12.5938 18.6007 11.9961 18.6007Z" fill="#32393F"/>
<path d="M25.0039 20.7687C23.2107 20.7687 21.752 19.31 21.752 17.5168C21.752 15.7236 23.2107 14.2648 25.0039 14.2648C26.7971 14.2648 28.2559 15.7236 28.2559 17.5168C28.2559 19.31 26.7971 20.7687 25.0039 20.7687Z" fill="#FFBD86"/>
<path d="M25.0039 18.6007C24.4062 18.6007 23.9199 18.1145 23.9199 17.5168C23.9199 16.919 24.4062 16.4328 25.0039 16.4328C25.6016 16.4328 26.0879 16.919 26.0879 17.5168C26.0879 18.1145 25.6016 18.6007 25.0039 18.6007Z" fill="#24292D"/>
<path d="M23.9199 28.3566C23.9199 30.1559 22.4675 31.6085 20.668 31.6085C19.8441 31.6085 19.0854 31.2833 18.5 30.7847C17.9146 31.2833 17.1559 31.6085 16.332 31.6085C14.5325 31.6085 13.0801 30.1559 13.0801 28.3566H15.248C15.248 28.9635 15.7249 29.4406 16.332 29.4406C16.9391 29.4406 17.416 28.9635 17.416 28.3566V27.4893H19.584V28.3566C19.584 28.9635 20.0609 29.4406 20.668 29.4406C21.2751 29.4406 21.752 28.9635 21.752 28.3566H23.9199Z" fill="#895D3C"/>
<path d="M23.9199 28.3566C23.9199 30.1559 22.4675 31.6085 20.668 31.6085C19.8441 31.6085 19.0854 31.2833 18.5 30.7847V27.4893H19.584V28.3566C19.584 28.9635 20.0609 29.4406 20.668 29.4406C21.2751 29.4406 21.752 28.9635 21.752 28.3566H23.9199Z" fill="#714C2F"/>
<path d="M19.584 3.48989V14.2648H17.416V3.48989C17.7845 3.46821 18.1315 3.42493 18.5 3.42493C18.8685 3.42493 19.2155 3.46821 19.584 3.48989Z" fill="#FF9100"/>
<path d="M15.248 12.0968V3.83688C14.5008 4.02542 13.7813 4.2884 13.0801 4.59538V12.0968H15.248Z" fill="#FF9100"/>
<path d="M23.9199 12.0968V4.59538C23.2187 4.2884 22.4992 4.0255 21.752 3.83688V12.0968H23.9199Z" fill="#FF641A"/>
<path d="M35.6534 31.5757L26.9093 29.4078L27.4344 27.3054L36.1785 29.4734L35.6534 31.5757Z" fill="#714C2F"/>
<path d="M1.34857 31.5747L0.823486 29.4724L9.56553 27.3054L10.0906 29.4078L1.34857 31.5747Z" fill="#895D3C"/>
<path d="M19.584 14.2648H18.5V3.42493C18.8685 3.42493 19.2155 3.46821 19.584 3.48989V14.2648Z" fill="#FF641A"/>
<path d="M22.7275 21.9177C22.3373 21.2023 21.6218 20.7687 20.8197 20.7687H16.1802C15.3781 20.7687 14.6627 21.2023 14.2724 21.9177C13.904 22.6114 13.9473 23.4787 14.3808 24.1291L16.7006 27.5977C17.0908 28.2048 17.7629 28.5733 18.5 28.5733C19.2372 28.5733 19.9093 28.2048 20.2995 27.5977L22.6193 24.1291C23.0526 23.4787 23.0961 22.6115 22.7275 21.9177Z" fill="#895D3C"/>
<path d="M22.6192 24.1291L20.2995 27.5977C19.9093 28.2048 19.2372 28.5733 18.5 28.5733V20.7687H20.8197C21.6219 20.7687 22.3373 21.2023 22.7275 21.9177C23.0961 22.6115 23.0527 23.4787 22.6192 24.1291Z" fill="#714C2F"/>
</svg>
