<svg width="37" height="37" viewBox="0 0 37 37" fill="none" xmlns="http://www.w3.org/2000/svg">
<path d="M12.7388 3.65259C12.367 3.7857 3.62239 6.99003 2.77854 13.7406C2.68532 14.4861 2.59036 15.3627 2.48984 16.2907C2.22181 18.7643 1.918 21.5679 1.52965 23.0341C1.31574 23.8416 1.1001 24.492 0.891541 25.1209C0.413143 26.5635 0 27.8095 0 29.9059C0 31.7758 0.736893 33.5479 2.07511 34.8958C3.42221 36.2527 5.20464 37 7.0941 37C11.0058 37 14.1881 33.8176 14.1881 29.9059L12.7388 3.65259Z" fill="#C97840"/>
<path d="M24.2612 3.65259C24.633 3.7857 33.3776 6.98996 34.2215 13.7405C34.3147 14.486 34.4097 15.3626 34.5102 16.2906C34.7782 18.7642 35.082 21.5678 35.4704 23.034C35.6843 23.8415 35.8999 24.4919 36.1085 25.1208C36.5869 26.5635 37 27.8095 37 29.9059C37 31.7758 36.2631 33.5479 34.9249 34.8958C33.5778 36.2527 31.7953 37 29.9059 37C25.9943 37 22.8119 33.8176 22.8119 29.9059L24.2612 3.65259Z" fill="#AE632C"/>
<path d="M30.5886 12.0754C30.5886 8.91794 29.3317 5.91024 27.0497 3.60642C24.7461 1.28084 21.71 0.000144531 18.5 0L17.7291 16.1874L18.5 30.4869C19.3844 31.3913 20.6036 31.9174 21.9144 31.9173C21.9226 31.9173 21.931 31.9173 21.9392 31.9173C23.1813 31.911 24.3668 31.4423 25.2775 30.5978C26.1883 29.7531 26.7447 28.6061 26.8444 27.3681L26.9708 25.3512L29.2858 19.7084L29.2936 19.6886C30.6356 16.2251 30.603 13.3317 30.5886 12.0754Z" fill="#FFA73C"/>
<path d="M18.4996 0C15.2901 0 12.2539 1.28076 9.95022 3.60642C7.66814 5.91024 6.4113 8.91794 6.4113 12.0754C6.39685 13.3317 6.36433 16.2251 7.7063 19.6886L10.0291 25.3511L10.1542 27.3487L10.1555 27.368C10.2553 28.6061 10.8117 29.7531 11.7225 30.5977C12.6332 31.4423 13.8187 31.9109 15.0608 31.9172C15.0691 31.9173 15.0773 31.9173 15.0856 31.9173C16.3962 31.9172 17.6157 31.3912 18.5 30.4868V0C18.4998 0 18.4998 0 18.4996 0Z" fill="#FDC661"/>
<path d="M11.4521 14.1398H13.6201V16.3078H11.4521V14.1398Z" fill="#351A0A"/>
<path d="M23.3799 14.1398H25.5479V16.3078H23.3799V14.1398Z" fill="#281408"/>
<path d="M19.3778 21.7319H18.5001L17.5481 24.3076L18.5001 28.5209L20.8576 27.0746C21.724 26.5548 22.2541 25.6185 22.2541 24.6082C22.2541 23.0196 20.9663 21.7319 19.3778 21.7319Z" fill="#281408"/>
<path d="M17.6223 21.7319C16.0337 21.7319 14.746 23.0196 14.746 24.6082C14.746 25.6185 15.276 26.5548 16.1424 27.0746L18.5 28.5209V21.7319H17.6223V21.7319Z" fill="#412816"/>
</svg>
