<svg width="356" height="186" viewBox="0 0 356 186" fill="none" xmlns="http://www.w3.org/2000/svg">
<path d="M334.283 1.32424L322.51 1.20667L322.392 12.9795L334.165 13.097L334.283 1.32424Z" fill="#00BA63"/>
<path d="M285.169 46.0977L273.397 45.9802L273.279 57.7529L285.052 57.8705L285.169 46.0977Z" fill="#7984EB"/>
<path d="M228.234 9.55551L216.461 9.43793L216.344 21.2107L228.117 21.3283L228.234 9.55551Z" fill="#FF73AF"/>
<path d="M355.092 102.136L343.32 102.019L343.202 113.792L354.975 113.909L355.092 102.136Z" fill="#00BA63"/>
<path d="M270.459 130.595L258.686 130.477L258.569 142.25L270.341 142.367L270.459 130.595Z" fill="#7984EB"/>
<path d="M61.9566 47.3781C64.8835 47.3781 67.6877 44.8044 67.5523 41.7824C67.4165 38.7506 65.0936 36.1866 61.9566 36.1866C59.0297 36.1866 56.2255 38.7603 56.3609 41.7824C56.4967 44.8141 58.8197 47.3781 61.9566 47.3781Z" fill="#FFD400"/>
<path d="M114.74 116.202C117.667 116.202 120.471 113.628 120.336 110.606C120.2 107.574 117.877 105.01 114.74 105.01C111.813 105.01 109.009 107.584 109.144 110.606C109.28 113.638 111.603 116.202 114.74 116.202Z" fill="#FF9AC9"/>
<path d="M160.995 164.533C163.921 164.533 166.726 161.959 166.59 158.937C166.454 155.905 164.131 153.341 160.995 153.341C158.068 153.341 155.263 155.915 155.399 158.937C155.535 161.969 157.858 164.533 160.995 164.533Z" fill="#FF9AC9"/>
<path d="M8.42476 156.489C11.3517 156.489 14.1559 153.915 14.0205 150.893C13.8847 147.862 11.5617 145.298 8.42476 145.298C5.49783 145.298 2.69364 147.871 2.82905 150.893C2.96484 153.925 5.28781 156.489 8.42476 156.489Z" fill="#FFE470"/>
<path d="M120.643 140.682L139.462 132.783L143.793 143.102L124.974 151.001L120.643 140.682Z" fill="#948FE1"/>
<path d="M50.7108 110.458L58.4553 102.378L73.1919 116.502L65.4475 124.582L50.7108 110.458Z" fill="#B9B6EC"/>
<path d="M111.36 61.4965L123.157 44.8412L132.29 51.3101L120.492 67.9654L111.36 61.4965Z" fill="#FDBF00"/>
<path d="M5.60042 98.8574C8.52734 98.8574 11.3315 96.2838 11.1961 93.2617C11.0603 90.23 8.73737 87.666 5.60042 87.666C2.67349 87.666 -0.130702 90.2397 0.00471356 93.2617C0.140503 96.2935 2.46347 98.8574 5.60042 98.8574Z" fill="#B9B6EC"/>
<path d="M124.602 11.1914C127.529 11.1914 130.334 8.61776 130.198 5.5957C130.062 2.56395 127.739 0 124.602 0C121.676 0 118.871 2.57365 119.007 5.5957C119.143 8.62745 121.465 11.1914 124.602 11.1914Z" fill="#FF9AC9"/>
<path d="M261.16 81.8576C264.087 81.8576 266.891 79.284 266.755 76.2619C266.62 73.2302 264.297 70.6662 261.16 70.6662C258.233 70.6662 255.429 73.2399 255.564 76.2619C255.7 79.2937 258.023 81.8576 261.16 81.8576Z" fill="#FFD400"/>
<path d="M198 65.0844L207.491 47L217.407 52.2042L207.916 70.2886L198 65.0844Z" fill="#FFE470"/>
<path d="M319.846 175.162L338.665 167.263L342.997 177.581L324.177 185.48L319.846 175.162Z" fill="#948FE1"/>
<path d="M249.914 144.938L257.659 136.857L272.395 150.982L264.651 159.062L249.914 144.938Z" fill="#B9B6EC"/>
<path d="M310.563 95.9761L322.36 79.3208L331.493 85.7896L319.695 102.445L310.563 95.9761Z" fill="#FDBF00"/>
<path d="M204.804 133.337C207.73 133.337 210.535 130.763 210.399 127.741C210.263 124.709 207.94 122.146 204.804 122.146C201.877 122.146 199.072 124.719 199.208 127.741C199.344 130.773 201.667 133.337 204.804 133.337Z" fill="#B9B6EC"/>
</svg>
