<svg width="290" height="158" viewBox="0 0 290 158" fill="none" xmlns="http://www.w3.org/2000/svg">
<g clip-path="url(#clip0)">
<path d="M145.93 158C224.566 158 288.313 153.772 288.313 148.556C288.313 143.34 224.566 139.112 145.93 139.112C67.2946 139.112 3.54761 143.34 3.54761 148.556C3.54761 153.772 67.2946 158 145.93 158Z" fill="#F2F2F2"/>
<path d="M140.473 45.1663C117.275 45.1663 100.619 60.0782 100.619 94.8727C100.619 134.307 117.275 144.745 140.473 144.745C163.671 144.745 181.32 133.312 181.32 94.8727C181.32 53.7821 163.671 45.1663 140.473 45.1663ZM140.626 131.656C124.558 131.656 116.164 122.211 116.164 94.8982C116.164 70.7987 124.902 58.09 140.969 58.09C157.037 58.09 165.775 66.4379 165.775 94.8982C165.775 121.522 156.693 131.656 140.626 131.656Z" fill="#2F2E41"/>
<path d="M86.7286 117.241H77.1371V88.9419C77.1371 87.4388 76.5412 85.9973 75.4804 84.9345C74.4196 83.8717 72.9809 83.2746 71.4807 83.2746H69.2333C68.4905 83.2746 67.7549 83.4212 67.0687 83.706C66.3824 83.9908 65.7588 84.4082 65.2336 84.9345C64.7084 85.4608 64.2917 86.0855 64.0074 86.7731C63.7232 87.4607 63.5769 88.1976 63.5769 88.9419V117.241H36.5228C35.9662 117.241 35.4191 117.097 34.9345 116.822C34.4499 116.548 34.0443 116.153 33.757 115.675C33.4698 115.198 33.3106 114.654 33.2949 114.096C33.2792 113.539 33.4076 112.987 33.6676 112.494L62.3014 58.1947C62.6584 57.5177 62.8748 56.7752 62.9375 56.0122C63.0002 55.2491 62.9079 54.4812 62.6662 53.7549C62.4246 53.0285 62.0385 52.3587 61.5314 51.786C61.0242 51.2133 60.4065 50.7494 59.7155 50.4225L58.0252 49.6227C56.7127 49.0017 55.2121 48.91 53.834 49.3666C52.4559 49.8232 51.3057 50.7931 50.6214 52.0756L15.6988 117.531C15.1041 118.646 14.793 119.89 14.793 121.154C14.793 122.163 14.9914 123.163 15.3768 124.095C15.7623 125.027 16.3272 125.874 17.0395 126.588C17.7517 127.302 18.5972 127.868 19.5278 128.254C20.4584 128.64 21.4557 128.839 22.463 128.839H63.5769V146.733C63.5769 147.625 63.7522 148.509 64.093 149.333C64.4337 150.157 64.9331 150.906 65.5627 151.537C66.1923 152.167 66.9398 152.668 67.7624 153.009C68.585 153.351 69.4666 153.526 70.357 153.526H70.357C71.2474 153.526 72.1291 153.351 72.9517 153.009C73.7743 152.668 74.5217 152.167 75.1513 151.537C75.7809 150.906 76.2803 150.157 76.621 149.333C76.9618 148.509 77.1371 147.625 77.1371 146.733V128.839H86.7286C88.2636 128.839 89.7358 128.228 90.8212 127.14C91.9067 126.053 92.5165 124.578 92.5165 123.04C92.5165 121.502 91.9067 120.027 90.8212 118.939C89.7358 117.852 88.2636 117.241 86.7286 117.241Z" fill="#6C63FF"/>
<path d="M264.335 117.241H254.744V88.9419C254.744 87.4388 254.148 85.9973 253.087 84.9345C252.026 83.8717 250.587 83.2746 249.087 83.2746H246.84C246.097 83.2746 245.361 83.4212 244.675 83.706C243.989 83.9908 243.365 84.4082 242.84 84.9345C242.315 85.4608 241.898 86.0855 241.614 86.7731C241.33 87.4607 241.183 88.1976 241.183 88.9419V117.241H214.129C213.573 117.241 213.026 117.097 212.541 116.822C212.056 116.548 211.651 116.153 211.363 115.675C211.076 115.198 210.917 114.654 210.901 114.096C210.886 113.539 211.014 112.987 211.274 112.494L239.908 58.1947C240.265 57.5177 240.481 56.7753 240.544 56.0122C240.607 55.2491 240.514 54.4812 240.273 53.7549C240.031 53.0285 239.645 52.3587 239.138 51.786C238.631 51.2133 238.013 50.7494 237.322 50.4225L235.632 49.6227C234.319 49.0017 232.819 48.91 231.44 49.3666C230.062 49.8232 228.912 50.7931 228.228 52.0756L193.305 117.531C192.711 118.646 192.399 119.89 192.399 121.154C192.399 123.192 193.208 125.147 194.646 126.588C196.084 128.029 198.035 128.839 200.069 128.839H241.183V146.733C241.183 148.535 241.898 150.263 243.169 151.537C244.441 152.811 246.165 153.526 247.963 153.526C249.762 153.526 251.486 152.811 252.758 151.537C254.029 150.263 254.744 148.535 254.744 146.733V128.839H264.335C265.87 128.839 267.342 128.228 268.428 127.14C269.513 126.053 270.123 124.578 270.123 123.04C270.123 121.502 269.513 120.027 268.428 118.939C267.342 117.852 265.87 117.241 264.335 117.241Z" fill="#6C63FF"/>
<path d="M127.171 8.42467C129.094 8.42467 130.653 6.86259 130.653 4.93566C130.653 3.00874 129.094 1.44666 127.171 1.44666C125.247 1.44666 123.688 3.00874 123.688 4.93566C123.688 6.86259 125.247 8.42467 127.171 8.42467Z" fill="#2F2E41"/>
<path d="M135.664 25.3591C141.058 25.3591 145.431 19.6823 145.431 12.6796C145.431 5.67683 141.058 0 135.664 0C130.269 0 125.896 5.67683 125.896 12.6796C125.896 19.6823 130.269 25.3591 135.664 25.3591Z" fill="#2F2E41"/>
<path opacity="0.1" d="M135.664 21.5298C130.771 21.5298 126.718 16.8591 126.007 10.7649C125.933 11.4004 125.896 12.0397 125.896 12.6796C125.896 19.6823 130.27 25.3592 135.664 25.3592C141.058 25.3592 145.431 19.6823 145.431 12.6796C145.431 12.0397 145.394 11.4004 145.32 10.7649C144.609 16.8591 140.557 21.5298 135.664 21.5298Z" fill="black"/>
<path d="M155.539 49.8121C155.33 50.6758 154.425 51.3674 153.424 51.8507C151.318 52.8667 148.72 53.1699 146.201 53.2716C145.558 53.3108 144.913 53.2988 144.272 53.2359C143.03 53.1156 141.865 52.579 140.965 51.713C140.901 51.671 140.849 51.6135 140.813 51.5456C140.777 51.4778 140.758 51.402 140.76 51.3252C140.761 51.2484 140.781 51.1731 140.819 51.1064C140.857 51.0397 140.912 50.9838 140.977 50.9439C142.319 49.4676 144.557 48.5624 146.812 47.9106C148.522 47.4164 151.503 46.1362 153.368 46.309C155.175 46.4763 155.804 48.7217 155.539 49.8121Z" fill="#3F3D56"/>
<path opacity="0.1" d="M155.539 49.8121C155.33 50.6758 154.425 51.3674 153.424 51.8507C151.318 52.8667 148.72 53.1699 146.201 53.2716C145.558 53.3108 144.913 53.2988 144.272 53.2359C143.03 53.1156 141.865 52.579 140.965 51.713C140.901 51.671 140.849 51.6135 140.813 51.5456C140.777 51.4778 140.758 51.402 140.76 51.3252C140.761 51.2484 140.781 51.1731 140.819 51.1064C140.857 51.0397 140.912 50.9838 140.977 50.9439C142.319 49.4676 144.557 48.5624 146.812 47.9106C148.522 47.4164 151.503 46.1362 153.368 46.309C155.175 46.4763 155.804 48.7217 155.539 49.8121Z" fill="black"/>
<path d="M128.764 43.3574C128.121 44.6197 128.004 46.086 128.44 47.4343C128.883 48.7723 129.713 49.9485 130.823 50.8139C133.548 53.0022 137.298 53.3033 140.79 53.273C143.85 53.2463 146.906 53.0364 149.942 52.6445C150.959 52.5542 151.958 52.3217 152.911 51.9537C154.051 51.4596 155.052 50.5535 155.458 49.3775C155.864 48.2016 155.576 46.7617 154.612 45.9769C153.766 45.2874 152.598 45.1926 151.509 45.127L145.277 44.7518C145.893 44.1275 146.713 43.7744 147.462 43.3205C148.457 42.7184 149.118 41.7075 149.841 40.7961C150.956 39.4616 152.168 38.2126 153.468 37.0594C153.671 38.2251 154.407 39.1823 155.273 39.9866C156.14 40.7909 157.138 41.4385 158.039 42.2043C160.219 44.0591 161.789 46.5765 164.083 48.2893C165.66 47.874 167.135 47.1362 168.414 46.1225L167.523 44.5049C167.449 44.3384 167.333 44.1938 167.187 44.0849C166.935 43.9294 166.61 44.0095 166.317 43.9655C165.534 43.8479 165.192 42.9422 164.885 42.2111C164.041 40.2039 162.426 38.6467 161.047 36.9635C160.029 35.721 159.126 34.3883 158.349 32.9818C157.885 32.143 157.461 31.2697 156.833 30.547C156.204 29.8243 155.323 29.2562 154.366 29.2542C153.52 29.2524 152.741 29.6824 152.014 30.115C149.8 31.4326 147.67 32.8867 145.635 34.4688C144.571 35.2968 143.513 36.1716 142.264 36.6794C141.739 36.8931 141.185 37.0392 140.68 37.2993C139.797 37.7548 139.126 38.5256 138.404 39.2097C135.83 41.65 132.305 43.231 128.764 43.3574Z" fill="#3F3D56"/>
<path d="M141.794 25.9889C141.765 26.7348 141.607 27.47 141.326 28.1614C141.184 28.5063 140.972 28.8181 140.705 29.0774C140.437 29.3367 140.118 29.5379 139.77 29.6685C139.274 29.8015 138.755 29.8184 138.252 29.7179C137.813 29.672 137.39 29.5277 137.015 29.2958C136.431 28.8933 136.139 28.1751 136.033 27.4722C135.927 26.7701 135.975 26.0527 135.907 25.3456C135.841 24.7744 135.732 24.2089 135.582 23.6538C135.536 23.4692 135.49 23.2854 135.444 23.1015C135.399 22.9177 135.355 22.7339 135.314 22.5501C135.277 22.3774 135.242 22.2038 135.212 22.0293C135.187 21.8821 135.165 21.734 135.149 21.5851C135.134 21.1436 135.061 20.7061 134.931 20.284C134.809 20.0102 134.656 19.7513 134.476 19.5121C134.398 19.4015 134.324 19.2909 134.255 19.176C134.056 18.8774 133.963 18.5203 133.992 18.1625C134.001 18.1072 134.014 18.0527 134.032 17.9999C134.039 17.9795 134.047 17.9591 134.055 17.9395C134.132 17.9187 134.202 17.8796 134.26 17.8254C134.318 17.7713 134.361 17.7038 134.387 17.6289C134.416 17.4679 134.403 17.302 134.347 17.1481C134.284 16.933 134.197 16.7255 134.088 16.5294C134.017 16.4001 133.775 16.1669 133.773 16.0188C133.77 15.721 134.351 15.481 134.586 15.3636C135.304 15.0033 136.105 14.8406 136.906 14.8921C137.42 14.927 137.977 15.0853 138.261 15.5168C138.516 15.9057 138.482 16.4094 138.591 16.8613C138.602 16.927 138.63 16.9887 138.671 17.0409C138.727 17.0915 138.797 17.1236 138.871 17.1328C138.997 17.1578 139.126 17.163 139.253 17.1481H139.254C139.288 17.1454 139.321 17.1406 139.354 17.1336C139.553 17.0969 139.74 17.0158 139.903 16.8962C140.008 16.8681 140.114 16.8451 140.221 16.8273C140.226 16.8268 140.23 16.826 140.234 16.8247C140.66 18.1701 140.715 19.6125 141.063 20.9826C141.235 21.6642 141.483 22.3373 141.517 23.0385C141.52 23.0692 141.521 23.1007 141.522 23.1322C141.527 23.3577 141.509 23.5849 141.518 23.8095C141.522 23.9107 141.533 24.0114 141.552 24.1108C141.59 24.2706 141.638 24.428 141.694 24.5822L141.697 24.5899C141.713 24.6392 141.728 24.6894 141.741 24.7397C141.75 24.7762 141.759 24.812 141.766 24.8486L141.766 24.8511C141.829 25.2272 141.839 25.6102 141.794 25.9889Z" fill="#FBBEBE"/>
<path d="M135.834 17.1897C138.601 17.1897 140.845 14.9419 140.845 12.169C140.845 9.39607 138.601 7.14819 135.834 7.14819C133.066 7.14819 130.823 9.39607 130.823 12.169C130.823 14.9419 133.066 17.1897 135.834 17.1897Z" fill="#FBBEBE"/>
<path d="M167.648 39.5245C167.503 38.1547 167.017 36.8433 166.235 35.7104C166.365 36.4848 166.495 37.2589 166.626 38.0327C166.463 38.0797 166.291 38.0783 166.129 38.0286C165.968 37.9788 165.825 37.883 165.717 37.7527C165.506 37.4888 165.344 37.1886 165.24 36.8669C164.671 35.4508 163.927 34.112 163.024 32.8817C159.834 32.6154 156.681 31.2904 153.875 29.7459C151.069 28.2022 148.443 26.3513 145.674 24.7421C145.194 24.4514 144.694 24.1955 144.178 23.9763C143.311 23.6282 142.339 23.4478 141.517 23.0385C141.462 23.0112 141.407 22.9823 141.353 22.9525C141.167 22.8514 140.991 22.7332 140.828 22.5994C140.739 22.5274 140.655 22.4501 140.576 22.3679C140.167 21.8903 139.842 21.3457 139.616 20.7579C139.175 19.7809 139.018 18.6023 138.578 17.6254C138.78 17.4361 139.007 17.2754 139.253 17.148H139.254C139.29 17.1293 139.325 17.1114 139.362 17.0944C139.536 17.0123 139.717 16.9459 139.903 16.8961C140.008 16.868 140.114 16.8451 140.221 16.8272C140.226 16.8268 140.23 16.8259 140.234 16.8246C140.73 16.7436 141.239 16.7839 141.716 16.9421C142.414 17.1787 143.003 17.6509 143.59 18.0977C144.543 18.7707 145.458 19.4975 146.329 20.2745C146.813 20.7391 147.255 21.2497 147.775 21.6718C148.208 22.0064 148.664 22.3092 149.14 22.5781C151.958 24.2596 154.775 25.9409 157.593 27.6218C158.547 28.1911 159.501 28.7605 160.434 29.3629C161.851 30.2786 163.216 31.2708 164.581 32.2622C165.386 32.846 166.19 33.43 166.993 34.0144C167.257 34.1829 167.489 34.3974 167.677 34.6475C167.844 34.9316 167.947 35.2482 167.98 35.5759C168.182 36.8999 168.068 38.253 167.648 39.5245Z" fill="#FBBEBE"/>
<path d="M143.037 29.7647C142.699 31.2837 141.167 32.2019 140.366 33.5362C139.37 35.1922 139.776 37.1171 140.15 39.0139C139.467 39.6037 138.784 40.1934 138.101 40.7831C137.723 41.1073 137.346 41.4333 136.94 41.72C136.348 42.1175 135.73 42.4734 135.089 42.7855C134.484 43.0969 133.879 43.4087 133.275 43.7207C132.712 44.0374 132.117 44.2903 131.499 44.4747C130.307 44.781 129.041 44.5666 127.863 44.2117C127.724 44.1752 127.59 44.1205 127.465 44.0492C127.392 44.0052 127.327 43.9471 127.277 43.8781C127.16 43.6693 127.118 43.4273 127.157 43.1914C127.277 41.2035 127.762 39.2573 128.245 37.3256C128.503 36.1667 128.85 35.0295 129.284 33.9242C129.708 32.9772 130.197 32.06 130.745 31.179C131.351 30.0705 132.068 29.0272 132.886 28.0653C133.284 27.695 133.619 27.2621 133.878 26.7837C134.179 26.0944 134.063 25.3038 134.124 24.5533C134.171 23.9894 134.32 23.4388 134.565 22.9288V22.9279C134.696 22.6532 134.853 22.3921 135.035 22.1484C135.118 22.3407 135.2 22.5328 135.282 22.7245C135.337 22.8505 135.391 22.9761 135.444 23.1015C135.513 23.2632 135.583 23.4243 135.651 23.5849C135.849 24.0461 136.047 24.5071 136.244 24.9677C136.457 25.5479 136.761 26.0905 137.144 26.5752C137.319 26.8234 137.556 27.0219 137.83 27.1512C138.105 27.2805 138.408 27.3362 138.711 27.313C139.013 27.2898 139.304 27.1883 139.556 27.0186C139.808 26.8489 140.011 26.6166 140.147 26.3446C140.432 25.8368 140.639 25.2885 140.76 24.7184C140.928 24.0243 140.951 23.3029 140.828 22.5995C140.623 21.2447 140.048 19.861 139.63 18.6024C139.46 18.1828 139.362 17.7375 139.339 17.2851C139.34 17.2343 139.345 17.1836 139.354 17.1336C139.357 17.1209 139.359 17.1072 139.362 17.0945C139.536 17.0123 139.717 16.946 139.903 16.8962C140.008 16.8681 140.114 16.8451 140.221 16.8273C140.589 18.822 140.957 20.8167 141.326 22.8113C141.335 22.8581 141.344 22.9049 141.353 22.9526C141.405 23.2385 141.459 23.5245 141.518 23.8095C141.572 24.0682 141.63 24.3261 141.694 24.5822L141.697 24.5899C141.719 24.6767 141.742 24.7626 141.765 24.8486L141.766 24.8511C141.832 25.086 141.905 25.3192 141.987 25.5489C142.487 26.9335 143.357 28.3274 143.037 29.7647Z" fill="#6C63FF"/>
<path d="M163.374 51.1113C163.358 51.4039 163.415 51.6959 163.539 51.9614C163.852 52.5357 164.605 52.6662 165.256 52.7199C169.06 53.0332 172.887 52.9164 176.664 52.3717C176.869 52.3576 177.068 52.2958 177.245 52.1911C177.782 51.8138 177.451 50.8943 176.865 50.6C176.278 50.3056 175.582 50.3765 174.939 50.2491C174.299 50.0878 173.69 49.8233 173.136 49.4658C171.831 48.7146 170.545 47.9314 169.278 47.1162C168.524 46.6309 167.634 46.1129 166.784 46.4007C164.483 47.1806 163.359 48.6242 163.374 51.1113Z" fill="#3F3D56"/>
<path d="M135.333 22.4437V22.4446C135.328 22.4803 135.322 22.5152 135.314 22.5501C135.305 22.608 135.294 22.6667 135.283 22.7245C135.177 23.2649 135.048 23.8027 134.899 24.3371C134.492 25.8136 133.946 27.2662 133.404 28.6976C131.95 32.5355 130.495 36.3736 129.041 40.2121C128.674 41.1788 128.308 42.1464 127.891 43.0935C127.751 43.4092 127.608 43.7275 127.465 44.0492C126.954 45.2005 126.463 46.3894 126.3 47.6148C126.148 48.4212 126.13 49.2474 126.248 50.0596C126.411 50.8629 126.898 51.6475 127.66 51.9445C128.032 52.09 128.564 52.2849 128.462 52.6721C128.407 52.8849 128.166 52.9887 127.949 53.0244C127.663 53.0701 127.371 53.0521 127.092 52.9718C126.814 52.8915 126.557 52.7509 126.339 52.5598C125.932 52.1981 125.62 51.6356 125.079 51.5752C124.704 51.5344 124.359 51.759 124.016 51.9165C122.616 52.5572 120.986 52.1088 119.515 51.6535C119.631 51.057 120.229 50.6638 120.823 50.5447C121.416 50.4247 122.03 50.5098 122.636 50.4936C122.83 50.504 123.022 50.4544 123.187 50.3515C123.335 50.2156 123.438 50.0383 123.484 49.8426C123.874 48.6845 124.165 47.4951 124.352 46.2872C124.547 45.0252 124.628 43.7437 124.907 42.497C125.124 41.5243 125.458 40.5823 125.745 39.6275C126.3 37.6616 126.756 35.6689 127.111 33.657C127.29 32.8212 127.419 31.9752 127.496 31.1237C127.544 30.4174 127.521 29.7077 127.589 29.0039C127.703 28.0883 127.894 27.1839 128.159 26.3004C128.419 25.3362 128.679 24.3726 128.938 23.4096C129.323 21.9842 129.735 20.5035 130.711 19.3955C131.049 19.0055 131.464 18.6892 131.93 18.4665C132.395 18.2437 132.902 18.1191 133.417 18.1003C133.611 18.1001 133.803 18.1209 133.992 18.1625C134.024 18.1701 134.055 18.1778 134.087 18.1863C134.292 18.2402 134.49 18.3221 134.674 18.4297C134.974 18.2382 135.127 18.3054 135.327 18.6007C135.502 18.9132 135.584 19.2692 135.564 19.627C135.581 20.5713 135.504 21.5149 135.333 22.4437Z" fill="#FBBEBE"/>
<path d="M135.664 23.5721L135.651 23.5848L135.582 23.6538L134.899 24.3371L134.565 22.9287L133.417 18.1003C133.611 18.1001 133.803 18.1209 133.992 18.1624C134 18.1071 134.014 18.0527 134.032 17.9999L134.086 18.1862L134.475 19.5121L135.212 22.0293L135.333 22.4437V22.4445L135.664 23.5721Z" fill="#6C63FF"/>
<path d="M139.997 8.16801C139.997 8.6151 139.908 9.0577 139.737 9.4705C139.565 9.8833 139.314 10.2582 138.998 10.5738C138.884 10.6887 138.761 10.795 138.631 10.8919C138.045 11.3346 137.331 11.5742 136.597 11.5746H132.523C131.622 11.5732 130.759 11.2138 130.123 10.5754C129.487 9.93705 129.129 9.0718 129.129 8.16967C129.129 7.26754 129.487 6.40229 130.123 5.7639C130.759 5.12551 131.622 4.76616 132.523 4.76477H136.597C137.498 4.76712 138.361 5.12632 138.998 5.76395C139.635 6.40158 139.994 7.26584 139.997 8.16801Z" fill="#2F2E41"/>
<path d="M143.817 8.42467C145.741 8.42467 147.3 6.86259 147.3 4.93566C147.3 3.00874 145.741 1.44666 143.817 1.44666C141.894 1.44666 140.335 3.00874 140.335 4.93566C140.335 6.86259 141.894 8.42467 143.817 8.42467Z" fill="#2F2E41"/>
<path opacity="0.1" d="M143.733 1.44666C143.69 1.44666 143.648 1.44835 143.605 1.44988C144.506 1.48269 145.359 1.86431 145.985 2.51443C146.61 3.16456 146.96 4.03251 146.96 4.93566C146.96 5.83882 146.61 6.70677 145.985 7.35689C145.359 8.00702 144.506 8.38863 143.605 8.42144C143.648 8.42297 143.69 8.42467 143.733 8.42467C144.656 8.42467 145.542 8.05708 146.195 7.40276C146.848 6.74845 147.215 5.86101 147.215 4.93566C147.215 4.01032 146.848 3.12288 146.195 2.46856C145.542 1.81425 144.656 1.44666 143.733 1.44666Z" fill="black"/>
<path opacity="0.1" d="M127.17 1.44666C127.213 1.44666 127.255 1.44835 127.298 1.44988C126.397 1.48269 125.544 1.86431 124.918 2.51443C124.293 3.16456 123.943 4.03251 123.943 4.93566C123.943 5.83882 124.293 6.70677 124.918 7.35689C125.544 8.00702 126.397 8.38863 127.298 8.42144C127.255 8.42297 127.213 8.42467 127.17 8.42467C126.247 8.42386 125.362 8.0559 124.71 7.40168C124.058 6.74745 123.691 5.86047 123.691 4.93566C123.691 4.01085 124.058 3.12388 124.71 2.46965C125.362 1.81542 126.247 1.44747 127.17 1.44666Z" fill="black"/>
<path opacity="0.1" d="M138.631 10.892C138.045 11.3347 137.331 11.5743 136.597 11.5746H132.522C131.788 11.5743 131.074 11.3347 130.488 10.892H138.631Z" fill="black"/>
<path d="M164.944 36.1731C164.944 36.1731 165.822 38.7075 166.626 38.0327L165.985 34.7198L164.944 36.1731Z" fill="#FBBEBE"/>
<path d="M271.773 113.463C272.59 113.761 273.466 113.865 274.33 113.766C275.195 113.667 276.024 113.368 276.754 112.893C277.483 112.418 278.093 111.779 278.534 111.028C278.975 110.277 279.236 109.433 279.296 108.564C279.357 107.694 279.214 106.822 278.881 106.017C278.548 105.212 278.032 104.495 277.375 103.924C276.718 103.352 275.938 102.941 275.096 102.724C274.253 102.506 273.372 102.487 272.521 102.669L272.661 105.566L271.293 103.083C269.951 103.715 268.914 104.855 268.41 106.253C268.231 106.743 268.122 107.256 268.087 107.776C268 108.996 268.313 110.212 268.979 111.238C269.644 112.265 270.625 113.046 271.773 113.463Z" fill="#57B894"/>
<path d="M278.542 147.064C278.059 144.6 280.151 142.416 282.218 140.996C284.285 139.576 286.7 138.181 287.406 135.772C288.419 132.309 285.4 129.138 283.05 126.404C281.307 124.374 279.81 122.145 278.59 119.762C278.101 118.807 277.652 117.808 277.523 116.742C277.338 115.207 277.83 113.68 278.326 112.216C279.978 107.339 281.744 102.502 283.624 97.7069" stroke="#3F3D56" stroke-miterlimit="10"/>
<path d="M272.004 112.718C272.822 113.015 273.697 113.119 274.562 113.02C275.426 112.921 276.256 112.622 276.985 112.147C277.715 111.672 278.324 111.034 278.765 110.282C279.206 109.531 279.468 108.687 279.528 107.818C279.588 106.948 279.446 106.076 279.113 105.271C278.779 104.466 278.264 103.749 277.607 103.178C276.95 102.606 276.169 102.195 275.327 101.978C274.485 101.76 273.603 101.741 272.752 101.923L272.893 104.82L271.525 102.337C270.182 102.969 269.145 104.109 268.641 105.507C268.462 105.997 268.353 106.51 268.318 107.03C268.232 108.251 268.545 109.466 269.21 110.493C269.875 111.519 270.856 112.3 272.004 112.718V112.718Z" stroke="#3F3D56" stroke-miterlimit="10"/>
<path d="M277.855 96.7065C278.176 95.8194 278.715 95.0275 279.421 94.4038C280.128 93.78 280.98 93.3445 281.899 93.1373L282.361 95.8914L283.219 92.9989C284.409 93.0166 285.564 93.4129 286.515 94.1307C287.466 94.8485 288.165 95.8506 288.51 96.9923C288.856 98.134 288.831 99.3562 288.438 100.483C288.045 101.609 287.305 102.581 286.325 103.259C285.345 103.936 284.175 104.284 282.985 104.252C281.795 104.22 280.645 103.81 279.703 103.081C278.76 102.352 278.073 101.341 277.741 100.196C277.409 99.0499 277.449 97.8281 277.855 96.7065H277.855Z" fill="#57B894"/>
<path d="M278.164 95.712C278.484 94.8249 279.023 94.033 279.73 93.4093C280.436 92.7855 281.288 92.35 282.207 92.1428L282.669 94.8969L283.527 92.0044C284.718 92.0221 285.872 92.4184 286.823 93.1362C287.774 93.854 288.473 94.8561 288.819 95.9978C289.165 97.1395 289.139 98.3617 288.746 99.488C288.354 100.614 287.614 101.586 286.634 102.264C285.653 102.942 284.484 103.289 283.293 103.258C282.103 103.226 280.954 102.815 280.011 102.086C279.068 101.357 278.382 100.347 278.05 99.2011C277.717 98.0554 277.757 96.8335 278.164 95.712H278.164Z" stroke="#3F3D56" stroke-miterlimit="10"/>
<path d="M282.064 126.459C283.361 126.931 284.785 126.907 286.066 126.394C287.347 125.881 288.394 124.913 289.008 123.676C289.623 122.438 289.761 121.018 289.398 119.684C289.034 118.351 288.193 117.199 287.036 116.447L286.377 118.67L285.91 115.883C285.905 115.881 285.9 115.879 285.895 115.878C285.202 115.625 284.465 115.512 283.728 115.545C282.991 115.577 282.267 115.755 281.599 116.068C280.93 116.381 280.33 116.823 279.831 117.369C279.333 117.914 278.948 118.553 278.696 119.248C278.444 119.943 278.332 120.681 278.365 121.42C278.398 122.158 278.576 122.883 278.889 123.553C279.201 124.223 279.643 124.824 280.188 125.323C280.733 125.821 281.37 126.208 282.064 126.459H282.064Z" fill="#57B894"/>
<path d="M282.331 125.452C283.628 125.923 285.053 125.9 286.333 125.387C287.614 124.873 288.661 123.906 289.276 122.668C289.89 121.431 290.029 120.01 289.665 118.677C289.301 117.344 288.46 116.192 287.303 115.44L286.644 117.663L286.177 114.876C286.172 114.874 286.168 114.872 286.163 114.87C285.469 114.618 284.733 114.505 283.995 114.537C283.258 114.57 282.534 114.748 281.866 115.061C281.197 115.374 280.597 115.816 280.099 116.362C279.601 116.907 279.215 117.546 278.963 118.241C278.712 118.936 278.599 119.674 278.632 120.413C278.665 121.151 278.843 121.876 279.156 122.546C279.469 123.215 279.91 123.817 280.455 124.315C281 124.814 281.637 125.2 282.331 125.452H282.331Z" stroke="#3F3D56" stroke-miterlimit="10"/>
<path d="M276.216 135.807C276.439 137.078 277.091 138.233 278.064 139.08C279.036 139.926 280.269 140.412 281.557 140.455C282.844 140.499 284.107 140.097 285.134 139.318C286.161 138.539 286.89 137.43 287.198 136.177C287.505 134.924 287.374 133.603 286.825 132.435C286.276 131.268 285.343 130.325 284.182 129.765C283.022 129.205 281.705 129.061 280.451 129.359C279.198 129.656 278.084 130.377 277.298 131.399L279.801 135.173L276.381 133.17C276.116 134.023 276.059 134.927 276.216 135.807Z" fill="#57B894"/>
<path d="M276.447 135.061C276.67 136.332 277.322 137.487 278.295 138.334C279.267 139.18 280.5 139.666 281.788 139.709C283.075 139.753 284.338 139.351 285.365 138.572C286.393 137.794 287.121 136.684 287.429 135.431C287.737 134.178 287.605 132.857 287.056 131.689C286.507 130.522 285.574 129.579 284.414 129.019C283.253 128.459 281.936 128.315 280.682 128.613C279.429 128.911 278.316 129.631 277.529 130.653L280.032 134.428L276.612 132.424C276.347 133.277 276.29 134.181 276.447 135.061V135.061Z" stroke="#3F3D56" stroke-miterlimit="10"/>
<path d="M2.43134 127.175C2.96856 127.37 3.5438 127.438 4.11172 127.373C4.67964 127.308 5.22472 127.112 5.70398 126.8C6.18325 126.488 6.58361 126.068 6.8735 125.574C7.16339 125.081 7.3349 124.527 7.37449 123.955C7.41409 123.384 7.3207 122.811 7.10168 122.282C6.88265 121.753 6.54399 121.282 6.11238 120.907C5.68077 120.531 5.16801 120.261 4.61452 120.118C4.06102 119.975 3.48192 119.963 2.92286 120.082L3.01525 121.986L2.11645 120.354C1.23433 120.77 0.552857 121.519 0.221784 122.437C0.104206 122.759 0.0327279 123.096 0.00948097 123.438C-0.0472516 124.24 0.158484 125.038 0.59551 125.713C1.03254 126.387 1.67703 126.9 2.43134 127.175Z" fill="#57B894"/>
<path d="M6.87843 149.251C6.56115 147.632 7.93597 146.197 9.29398 145.264C10.652 144.331 12.2387 143.415 12.7021 141.832C13.368 139.557 11.3844 137.473 9.84057 135.676C8.69516 134.343 7.71152 132.878 6.91024 131.313C6.56188 130.698 6.3246 130.026 6.20934 129.329C6.08761 128.32 6.41097 127.317 6.73674 126.355C7.82199 123.151 8.9823 119.973 10.2177 116.822" stroke="#3F3D56" stroke-miterlimit="10"/>
<path d="M2.5832 126.684C3.12042 126.88 3.69566 126.948 4.26358 126.883C4.83149 126.818 5.37657 126.622 5.85583 126.31C6.3351 125.997 6.73546 125.578 7.02535 125.084C7.31524 124.591 7.48674 124.036 7.52634 123.465C7.56594 122.894 7.47254 122.321 7.25352 121.792C7.0345 121.263 6.69584 120.792 6.26423 120.417C5.83262 120.041 5.31986 119.771 4.76637 119.628C4.21288 119.485 3.63378 119.473 3.07472 119.592L3.16711 121.496L2.26831 119.864C1.38619 120.28 0.704712 121.029 0.37364 121.947C0.256063 122.269 0.184586 122.606 0.161338 122.948C0.104601 123.75 0.310335 124.548 0.747362 125.223C1.18439 125.897 1.82889 126.41 2.5832 126.684V126.684Z" stroke="#3F3D56" stroke-miterlimit="10"/>
<path d="M6.42738 116.165C6.6382 115.582 6.99205 115.062 7.45631 114.652C7.92057 114.242 8.48031 113.956 9.08395 113.82L9.38785 115.629L9.95127 113.729C10.7335 113.741 11.4919 114.001 12.1168 114.473C12.7418 114.944 13.201 115.603 13.4281 116.353C13.6552 117.103 13.6385 117.906 13.3805 118.646C13.1224 119.386 12.6363 120.025 11.9923 120.47C11.3484 120.915 10.5799 121.143 9.79779 121.122C9.01571 121.102 8.26051 120.832 7.64124 120.353C7.02196 119.874 6.57065 119.21 6.35247 118.457C6.13429 117.705 6.16052 116.902 6.42738 116.165Z" fill="#57B894"/>
<path d="M6.63001 115.512C6.84084 114.929 7.19469 114.408 7.65895 113.999C8.12321 113.589 8.68295 113.303 9.28659 113.167L9.59048 114.976L10.1539 113.076C10.9362 113.087 11.6945 113.348 12.3195 113.819C12.9444 114.291 13.4036 114.949 13.6307 115.699C13.8579 116.449 13.8412 117.252 13.5831 117.992C13.3251 118.732 12.8389 119.371 12.195 119.816C11.551 120.261 10.7825 120.49 10.0004 120.469C9.21834 120.448 8.46315 120.179 7.84387 119.7C7.2246 119.221 6.77329 118.557 6.55511 117.804C6.33692 117.051 6.36315 116.248 6.63001 115.512V115.512Z" stroke="#3F3D56" stroke-miterlimit="10"/>
<path d="M9.19286 135.713C10.0448 136.023 10.9807 136.007 11.8222 135.67C12.6636 135.333 13.3518 134.697 13.7555 133.884C14.1592 133.071 14.2502 132.138 14.0111 131.262C13.7721 130.386 13.2197 129.629 12.4593 129.135L12.0264 130.595L11.7194 128.764C11.7164 128.763 11.7132 128.762 11.71 128.761C11.2543 128.595 10.7704 128.52 10.286 128.542C9.80153 128.563 9.32606 128.68 8.88672 128.886C8.44738 129.091 8.05279 129.382 7.7255 129.74C7.39822 130.099 7.14465 130.518 6.97928 130.975C6.81392 131.432 6.74001 131.917 6.76178 132.402C6.78354 132.887 6.90055 133.364 7.10612 133.804C7.31169 134.244 7.6018 134.639 7.95985 134.966C8.3179 135.294 8.73689 135.548 9.19286 135.713Z" fill="#57B894"/>
<path d="M9.36839 135.051C10.2204 135.361 11.1563 135.346 11.9977 135.008C12.8392 134.671 13.5273 134.035 13.931 133.222C14.3347 132.409 14.4257 131.476 14.1867 130.6C13.9476 129.724 13.3953 128.967 12.6349 128.473L12.2019 129.933L11.895 128.103C11.8919 128.101 11.8888 128.1 11.8856 128.099C11.4299 127.933 10.9462 127.859 10.462 127.881C9.97786 127.903 9.50268 128.02 9.06364 128.225C8.17696 128.641 7.49131 129.392 7.15751 130.314C6.82371 131.236 6.86912 132.253 7.28374 133.141C7.69836 134.03 8.44823 134.717 9.36839 135.051V135.051Z" stroke="#3F3D56" stroke-miterlimit="10"/>
<path d="M5.3504 141.854C5.49689 142.69 5.92554 143.449 6.56445 144.005C7.20336 144.561 8.01368 144.88 8.85952 144.909C9.70536 144.937 10.5353 144.673 11.2101 144.162C11.8849 143.65 12.3635 142.921 12.5658 142.098C12.768 141.274 12.6815 140.406 12.3208 139.639C11.9601 138.872 11.3471 138.253 10.5847 137.885C9.82219 137.517 8.95662 137.423 8.13311 137.618C7.3096 137.814 6.57822 138.287 6.06164 138.959L7.70608 141.438L5.45916 140.122C5.28494 140.683 5.24764 141.277 5.3504 141.854Z" fill="#57B894"/>
<path d="M5.5025 141.364C5.64899 142.199 6.07763 142.959 6.71655 143.515C7.35546 144.071 8.16578 144.39 9.01162 144.419C9.85746 144.447 10.6874 144.183 11.3622 143.672C12.037 143.16 12.5156 142.431 12.7179 141.608C12.9201 140.784 12.8336 139.916 12.4729 139.149C12.1122 138.382 11.4992 137.763 10.7368 137.395C9.97429 137.027 9.10872 136.933 8.28521 137.128C7.4617 137.324 6.73032 137.797 6.21374 138.468L7.85818 140.948L5.61126 139.632C5.43704 140.192 5.39974 140.787 5.5025 141.364V141.364Z" stroke="#3F3D56" stroke-miterlimit="10"/>
<path d="M129.817 92.2516C132.351 92.2516 134.406 89.5878 134.406 86.3019C134.406 83.0159 132.351 80.3522 129.817 80.3522C127.283 80.3522 125.228 83.0159 125.228 86.3019C125.228 89.5878 127.283 92.2516 129.817 92.2516Z" fill="#2F2E41"/>
<path d="M154.784 92.3868C157.319 92.3868 159.373 89.7231 159.373 86.4371C159.373 83.1512 157.319 80.4874 154.784 80.4874C152.25 80.4874 150.196 83.1512 150.196 86.4371C150.196 89.7231 152.25 92.3868 154.784 92.3868Z" fill="#2F2E41"/>
<path d="M151.276 104.016C151.276 106.704 147.529 108.884 142.908 108.884C138.287 108.884 134.541 106.704 134.541 104.016C134.541 101.687 137.35 99.7402 141.105 99.2642C141.703 99.1852 142.305 99.1463 142.908 99.1479C143.918 99.1446 144.926 99.2535 145.912 99.4724C149.049 100.173 151.276 101.944 151.276 104.016Z" fill="#2F2E41"/>
<path d="M146.012 99.8781C146.014 100.218 145.887 100.546 145.656 100.795C145.547 100.915 145.414 101.01 145.266 101.076C145.119 101.141 144.959 101.175 144.797 101.176H142.098C141.766 101.165 141.451 101.022 141.224 100.778C140.996 100.535 140.874 100.211 140.884 99.8781C140.882 99.6144 140.959 99.3563 141.105 99.1367C141.702 99.0525 142.305 99.011 142.908 99.0126C143.919 99.0093 144.928 99.1255 145.912 99.3588C145.979 99.5238 146.013 99.7001 146.012 99.8781Z" fill="white"/>
<path d="M130.897 84.6793C131.642 84.6793 132.246 84.0739 132.246 83.3271C132.246 82.5803 131.642 81.9749 130.897 81.9749C130.151 81.9749 129.547 82.5803 129.547 83.3271C129.547 84.0739 130.151 84.6793 130.897 84.6793Z" fill="white"/>
<path d="M155.999 84.6793C156.745 84.6793 157.349 84.0739 157.349 83.3271C157.349 82.5803 156.745 81.9749 155.999 81.9749C155.254 81.9749 154.65 82.5803 154.65 83.3271C154.65 84.0739 155.254 84.6793 155.999 84.6793Z" fill="white"/>
<path opacity="0.3" d="M157.349 97.3899C158.094 97.3899 158.698 96.7845 158.698 96.0377C158.698 95.2909 158.094 94.6855 157.349 94.6855C156.604 94.6855 155.999 95.2909 155.999 96.0377C155.999 96.7845 156.604 97.3899 157.349 97.3899Z" fill="#6C63FF"/>
<path opacity="0.3" d="M124.419 97.3899C125.164 97.3899 125.768 96.7845 125.768 96.0377C125.768 95.2909 125.164 94.6855 124.419 94.6855C123.673 94.6855 123.069 95.2909 123.069 96.0377C123.069 96.7845 123.673 97.3899 124.419 97.3899Z" fill="#6C63FF"/>
</g>
<defs>
<clipPath id="clip0">
<rect width="290" height="158" fill="white"/>
</clipPath>
</defs>
</svg>
