<svg width="35" height="35" viewBox="0 0 35 35" fill="none" xmlns="http://www.w3.org/2000/svg">
<path d="M34.0045 1.86531L33.5313 0.323059L32.3353 1.4056C29.182 4.25953 24.9488 5.74861 24.9065 5.7633L25.2421 6.73278L25.5771 7.70238C25.6108 7.6907 25.7816 7.63095 26.059 7.52294L31.2982 12.591C31.2624 12.6503 31.2271 12.7099 31.1896 12.7684L32.0533 13.3215L32.0535 13.3217V13.3216L32.9174 13.8748C36.1068 8.8945 34.0918 2.14996 34.0045 1.86531Z" fill="#974C00"/>
<path d="M2.21646 0.322998L1.74328 1.86525C1.65591 2.1499 -0.359185 8.89444 2.83026 13.8749L3.69412 13.3217L3.69432 13.3215L4.55804 12.7684C4.52051 12.7099 4.48524 12.6502 4.44949 12.591L9.68869 7.52295C9.96609 7.63102 10.1369 7.69077 10.1706 7.70239L10.8407 5.7631C10.7984 5.74848 6.57683 4.26959 3.41247 1.40561L2.21646 0.322998Z" fill="#E37500"/>
<path d="M35 21.678C35 24.0349 34.0329 26.1989 32.1261 28.1098C30.6713 29.5673 28.6633 30.8777 26.1581 32.0048C21.9696 33.8884 17.8488 34.6168 17.6758 34.6469L17.5001 34.677L17.3243 34.6469C17.1513 34.6168 13.0305 33.8884 8.84208 32.0048C6.33678 30.8777 4.32872 29.5673 2.87403 28.1098C0.96708 26.1989 0 24.0349 0 21.678C0 17.0039 1.82068 12.6089 5.12545 9.30343C8.43097 5.99866 12.8252 4.17798 17.5 4.17798C22.1748 4.17798 26.569 5.99866 29.8746 9.30343C33.1793 12.6089 35 17.0039 35 21.678Z" fill="#FFA720"/>
<path d="M34.9999 21.678C34.9999 24.0349 34.0329 26.1989 32.126 28.1098C30.6713 29.5673 28.6632 30.8777 26.158 32.0048C21.9695 33.8884 17.8488 34.6168 17.6758 34.6469L17.5 34.677V4.17798C22.1748 4.17798 26.569 5.99866 29.8746 9.30343C33.1793 12.6089 34.9999 17.0039 34.9999 21.678Z" fill="#FF8600"/>
<path d="M22.1912 24.3836L17.5 29.8004L12.9073 24.4972L14.622 18.3944H20.4765L22.1912 24.3836Z" fill="#FFD82D"/>
<path d="M22.1912 24.3836L17.5 29.8004V18.3944H20.4765L22.1912 24.3836Z" fill="#FBBD00"/>
<path d="M10.9198 24.1876C14.4947 24.1876 17.3926 21.2896 17.3926 17.7148C17.3926 14.14 14.4947 11.242 10.9198 11.242C7.345 11.242 4.44702 14.14 4.44702 17.7148C4.44702 21.2896 7.345 24.1876 10.9198 24.1876Z" fill="#DEDEE0"/>
<path d="M24.0802 24.1876C27.6551 24.1876 30.553 21.2896 30.553 17.7148C30.553 14.14 27.6551 11.242 24.0802 11.242C20.5054 11.242 17.6074 14.14 17.6074 17.7148C17.6074 21.2896 20.5054 24.1876 24.0802 24.1876Z" fill="#D6D6D8"/>
<path d="M10.92 14.6225C9.2148 14.6225 7.82751 16.0098 7.82751 17.715C7.82751 19.4203 9.2148 20.8076 10.92 20.8076C12.6252 20.8076 14.0125 19.4203 14.0125 17.715C14.0125 16.0098 12.6252 14.6225 10.92 14.6225Z" fill="#57555C"/>
<path d="M24.0799 14.6225C22.3747 14.6225 20.9874 16.0098 20.9874 17.715C20.9874 19.4203 22.3747 20.8076 24.0799 20.8076C25.7852 20.8076 27.1724 19.4203 27.1724 17.715C27.1724 16.0098 25.7852 14.6225 24.0799 14.6225Z" fill="#3A3A41"/>
<path d="M24.0802 10.2167C21.2467 10.2167 18.7756 11.7966 17.5007 14.122C17.5007 14.1213 17.5 14.1213 17.5 14.1206C17.4652 14.0578 17.4302 13.9948 17.3933 13.9333C16.0911 11.7118 13.6761 10.2167 10.9205 10.2167C6.78538 10.2167 3.42175 13.5803 3.42175 17.7155C3.42175 21.8499 6.78538 25.2142 10.9205 25.2142C13.6761 25.2142 16.0911 23.7184 17.3933 21.4976C17.4302 21.4361 17.4652 21.3732 17.5 21.3103C17.5 21.3096 17.5007 21.3096 17.5007 21.3089C18.7755 23.6336 21.2467 25.2142 24.0802 25.2142C28.2154 25.2142 31.5783 21.8499 31.5783 17.7155C31.5783 13.5803 28.2154 10.2167 24.0802 10.2167ZM10.9205 23.1623C7.91734 23.1623 5.47363 20.7186 5.47363 17.7155C5.47363 14.7116 7.91734 12.2686 10.9205 12.2686C13.9237 12.2686 16.3674 14.7116 16.3674 17.7155C16.3674 20.7186 13.9237 23.1623 10.9205 23.1623ZM24.0802 23.1623C21.0771 23.1623 18.6334 20.7186 18.6334 17.7155C18.6334 14.7116 21.0771 12.2686 24.0802 12.2686C27.0834 12.2686 29.5264 14.7116 29.5264 17.7155C29.5264 20.7186 27.0834 23.1623 24.0802 23.1623Z" fill="#E37500"/>
<path d="M24.0802 10.2167C21.2466 10.2167 18.7756 11.7966 17.5007 14.122C17.5007 14.1213 17.5 14.1213 17.5 14.1206V21.3102C17.5 21.3095 17.5007 21.3095 17.5007 21.3088C18.7755 23.6335 21.2466 25.2141 24.0802 25.2141C28.2153 25.2141 31.5783 21.8498 31.5783 17.7154C31.5783 13.5803 28.2153 10.2167 24.0802 10.2167ZM24.0802 23.1623C21.077 23.1623 18.6333 20.7186 18.6333 17.7155C18.6333 14.7116 21.077 12.2686 24.0802 12.2686C27.0834 12.2686 29.5264 14.7116 29.5264 17.7155C29.5264 20.7186 27.0834 23.1623 24.0802 23.1623Z" fill="#974C00"/>
</svg>
