<svg width="36" height="37" viewBox="0 0 36 37" fill="none" xmlns="http://www.w3.org/2000/svg">
<path d="M33.8203 25.0762C33.8203 27.7254 31.9606 29.9374 29.5128 30.4049C29.058 32.9207 26.9058 34.832 24.3281 34.832C23.6764 34.832 23.0386 34.7098 22.4401 34.4744C21.489 36.0216 19.8226 37 18 37C16.1774 37 14.511 36.0216 13.5599 34.4744C12.9614 34.7098 12.3236 34.832 11.6719 34.832C9.09421 34.832 6.94199 32.9207 6.48715 30.4049C4.0394 29.9374 2.17969 27.7254 2.17969 25.0762C2.17969 23.357 2.97345 21.7576 4.28906 20.7527V20.7402C4.28906 19.6613 4.59695 18.6186 5.18005 17.7254H30.8199C31.403 18.6186 31.7109 19.6613 31.7109 20.7402V20.7527C33.0266 21.7576 33.8203 23.357 33.8203 25.0762Z" fill="#D9F2FF"/>
<path d="M33.8203 25.0762C33.8203 27.7254 31.9606 29.9374 29.5128 30.4049C29.058 32.9207 26.9058 34.832 24.3281 34.832C23.6764 34.832 23.0386 34.7098 22.4401 34.4744C21.489 36.0216 19.8226 37 18 37V17.7254H30.8199C31.403 18.6186 31.7109 19.6613 31.7109 20.7402V20.7527C33.0266 21.7576 33.8203 23.357 33.8203 25.0762Z" fill="#CCDDFF"/>
<path d="M27.4922 13.1523C26.9096 13.1523 26.4375 13.6376 26.4375 14.2363V19.6562H28.5469C31.4547 19.6562 33.8203 17.2249 33.8203 14.2363V13.1523H27.4922Z" fill="#FFA78F"/>
<path d="M2.17969 13.1523V14.2363C2.17969 17.2249 4.54532 19.6562 7.45312 19.6562H9.5625V14.2363C9.5625 13.6376 9.09036 13.1523 8.50781 13.1523H2.17969Z" fill="#FFBFAB"/>
<path d="M27.4922 13.1357V20.7402C27.4922 25.7534 23.7945 29.8957 19.0547 30.4362L18 29.4121L16.9453 30.4362C12.2055 29.8957 8.50781 25.7534 8.50781 20.7402V13.1357H27.4922Z" fill="#FFCEBF"/>
<path d="M27.4922 13.1357V20.7402C27.4922 25.7534 23.7945 29.8957 19.0547 30.4362L18 29.4121V13.1357H27.4922Z" fill="#FFBFAB"/>
<path d="M27.9443 3.3372C26.491 2.21709 24.461 1.91137 22.7082 2.38194C21.7477 0.802826 19.838 0 18 0C16.1647 0 14.2536 0.800568 13.2918 2.38194C11.5397 1.91137 9.50975 2.21652 8.05571 3.3372C6.30696 4.68484 5.86119 6.90927 7.10786 8.67188C5.86201 10.4336 6.30641 12.6581 8.05571 14.0065C9.50892 15.1267 11.5389 15.4324 13.2918 14.9618C14.2523 16.5409 16.162 17.3438 18 17.3438C19.8352 17.3438 21.7463 16.5432 22.7082 14.9618C24.4602 15.4324 26.4902 15.1272 27.9443 14.0065C29.6971 12.6552 30.136 10.43 28.8921 8.67188C30.136 6.91379 29.698 4.68851 27.9443 3.3372Z" fill="#E6FFFF"/>
<path d="M28.8921 8.67188C30.136 10.43 29.6971 12.6552 27.9443 14.0065C26.4902 15.1272 24.4602 15.4324 22.7082 14.9618C21.7463 16.5432 19.8353 17.3438 18 17.3438V0C19.838 0 21.7477 0.802826 22.7082 2.38194C24.4611 1.91137 26.4911 2.21709 27.9443 3.3372C29.698 4.68851 30.136 6.91379 28.8921 8.67188Z" fill="#D9F2FF"/>
<path d="M21.1641 22.9082C21.1641 24.3211 20.2824 25.5264 19.0547 25.9738V30.4362C18.7086 30.4758 18.3565 30.4961 18 30.4961C17.6435 30.4961 17.2914 30.4758 16.9453 30.4362V25.9738C15.7176 25.5264 14.8359 24.3211 14.8359 22.9082H16.9453C16.9453 23.5058 17.4185 23.9922 18 23.9922C18.5815 23.9922 19.0547 23.5058 19.0547 22.9082H21.1641Z" fill="#FFBFAB"/>
<path d="M21.1641 22.9082C21.1641 24.3211 20.2824 25.5264 19.0547 25.9738V30.4362C18.7086 30.4758 18.3565 30.4961 18 30.4961V23.9922C18.5815 23.9922 19.0547 23.5058 19.0547 22.9082H21.1641Z" fill="#FFA78F"/>
<path d="M12.7266 18.5723H14.8359V20.7402H12.7266V18.5723Z" fill="#596C76"/>
<path d="M21.1641 18.5723H23.2734V20.7402H21.1641V18.5723Z" fill="#465A61"/>
</svg>
